<svg width="48" height="48" viewBox="0 0 48 48" fill="none" xmlns="http://www.w3.org/2000/svg">
<rect width="48" height="48" rx="24" fill="#674E5D"/>
<path d="M29.5291 19.77C29.4591 19.76 29.3891 19.76 29.3191 19.77C27.7691 19.72 26.5391 18.45 26.5391 16.89C26.5391 15.3 27.8291 14 29.4291 14C31.0191 14 32.3191 15.29 32.3191 16.89C32.3091 18.45 31.0791 19.72 29.5291 19.77Z" fill="white"/>
<path d="M32.7896 26.6999C31.6696 27.4499 30.0996 27.7299 28.6496 27.5399C29.0296 26.7199 29.2296 25.8099 29.2396 24.8499C29.2396 23.8499 29.0196 22.8999 28.5996 22.0699C30.0796 21.8699 31.6496 22.1499 32.7796 22.8999C34.3596 23.9399 34.3596 25.6499 32.7896 26.6999Z" fill="white"/>
<path d="M18.4402 19.77C18.5102 19.76 18.5802 19.76 18.6502 19.77C20.2002 19.72 21.4302 18.45 21.4302 16.89C21.4302 15.29 20.1402 14 18.5402 14C16.9502 14 15.6602 15.29 15.6602 16.89C15.6602 18.45 16.8902 19.72 18.4402 19.77Z" fill="white"/>
<path d="M18.5491 24.8501C18.5491 25.8201 18.7591 26.7401 19.1391 27.5701C17.7291 27.7201 16.2591 27.4201 15.1791 26.7101C13.5991 25.6601 13.5991 23.9501 15.1791 22.9001C16.2491 22.1801 17.7591 21.8901 19.1791 22.0501C18.7691 22.8901 18.5491 23.8401 18.5491 24.8501Z" fill="white"/>
<path d="M24.1208 27.87C24.0408 27.86 23.9508 27.86 23.8608 27.87C22.0208 27.81 20.5508 26.3 20.5508 24.44C20.5608 22.54 22.0908 21 24.0008 21C25.9008 21 27.4408 22.54 27.4408 24.44C27.4308 26.3 25.9708 27.81 24.1208 27.87Z" fill="white"/>
<path d="M20.8708 29.9401C19.3608 30.9501 19.3608 32.6101 20.8708 33.6101C22.5908 34.7601 25.4108 34.7601 27.1308 33.6101C28.6408 32.6001 28.6408 30.9401 27.1308 29.9401C25.4208 28.7901 22.6008 28.7901 20.8708 29.9401Z" fill="white"/>
</svg>
