<svg width="24" height="24" viewBox="0 0 24 24" fill="none" xmlns="http://www.w3.org/2000/svg">
<path d="M12.0002 8.75C10.2053 8.75 8.75018 10.2051 8.75018 12C8.75018 13.7949 10.2053 15.25 12.0002 15.25C13.7951 15.25 15.2502 13.7949 15.2502 12C15.2502 10.2051 13.7951 8.75 12.0002 8.75Z" fill="white"/>
<path fill-rule="evenodd" clip-rule="evenodd" d="M6.76972 3.08147C10.2178 2.69609 13.7825 2.69609 17.2307 3.08147C19.1291 3.29364 20.6603 4.78942 20.8831 6.69447C21.2954 10.2195 21.2954 13.7805 20.8831 17.3055C20.6603 19.2106 19.1291 20.7064 17.2307 20.9185C13.7825 21.3039 10.2178 21.3039 6.76972 20.9185C4.87132 20.7064 3.34013 19.2106 3.11732 17.3055C2.70504 13.7805 2.70504 10.2195 3.11732 6.69447C3.34013 4.78942 4.87132 3.29364 6.76972 3.08147ZM17.0002 6C16.4479 6 16.0002 6.44772 16.0002 7C16.0002 7.55228 16.4479 8 17.0002 8C17.5525 8 18.0002 7.55228 18.0002 7C18.0002 6.44772 17.5525 6 17.0002 6ZM7.25018 12C7.25018 9.37665 9.37683 7.25 12.0002 7.25C14.6235 7.25 16.7502 9.37665 16.7502 12C16.7502 14.6234 14.6235 16.75 12.0002 16.75C9.37683 16.75 7.25018 14.6234 7.25018 12Z" fill="white"/>
</svg>
