<svg width="48" height="48" viewBox="0 0 48 48" fill="none" xmlns="http://www.w3.org/2000/svg">
<rect width="48" height="48" rx="24" fill="#BDD9BF"/>
<path d="M32.9009 21.85L33.4909 31.74C33.5109 32.01 33.3809 32.19 33.3109 32.27C33.2309 32.36 33.0609 32.5 32.7809 32.5H30.0509L32.2109 21.85H32.9009ZM34.0009 18L33.9909 18.02C34.0109 18.26 33.9909 18.51 33.9309 18.76L26.5609 32.29C26.3209 33.3 25.4209 34 24.3809 34H32.7809C34.0709 34 35.0909 32.91 34.9909 31.62L34.0009 18Z" fill="white"/>
<path d="M23.4502 14.2399C23.5502 13.8399 23.3002 13.4299 22.9002 13.3299C22.5002 13.2399 22.0902 13.4799 21.9902 13.8799L21.4902 15.9499H23.0302L23.4502 14.2399Z" fill="white"/>
<path d="M30.0509 14.2101C30.1409 13.8001 29.8809 13.4101 29.4709 13.3201C29.0709 13.2301 28.6709 13.4901 28.5809 13.9001L28.1309 15.9701H29.6709L30.0509 14.2101Z" fill="white"/>
<path d="M33.8198 17.3299C33.4898 16.5299 32.7098 15.9599 31.7498 15.9599H29.6698L29.1098 18.5499C29.0298 18.8999 28.7198 19.1399 28.3798 19.1399C28.3298 19.1399 28.2698 19.1399 28.2198 19.1199C27.8198 19.0299 27.5598 18.6299 27.6398 18.2299L28.1298 15.9499H23.0298L22.3998 18.5499C22.3198 18.8899 22.0098 19.1199 21.6698 19.1199C21.6098 19.1199 21.5498 19.1099 21.4898 19.0999C21.0898 18.9999 20.8398 18.5999 20.9398 18.1899L21.4798 15.9399H19.4498C18.4698 15.9399 17.5998 16.5799 17.3098 17.5199L13.0998 31.0699C12.6598 32.5199 13.7298 33.9999 15.2398 33.9999H28.3798C29.4198 33.9999 30.3198 33.2999 30.5598 32.2899L33.9298 18.7599C33.9898 18.5099 34.0098 18.2599 33.9898 18.0199C33.9698 17.7799 33.9198 17.5399 33.8198 17.3299ZM26.6998 28.7499H18.6998C18.2898 28.7499 17.9498 28.4099 17.9498 27.9999C17.9498 27.5899 18.2898 27.2499 18.6998 27.2499H26.6998C27.1098 27.2499 27.4498 27.5899 27.4498 27.9999C27.4498 28.4099 27.1098 28.7499 26.6998 28.7499ZM27.6998 24.7499H19.6998C19.2898 24.7499 18.9498 24.4099 18.9498 23.9999C18.9498 23.5899 19.2898 23.2499 19.6998 23.2499H27.6998C28.1098 23.2499 28.4498 23.5899 28.4498 23.9999C28.4498 24.4099 28.1098 24.7499 27.6998 24.7499Z" fill="white"/>
</svg>
